<svg width="262" height="242" viewBox="0 0 262 242" fill="none" xmlns="http://www.w3.org/2000/svg">
<path d="M45.917 121L87.7525 79.3109C117.343 49.8235 96.4257 1.83103e-05 54.5902 1.83103e-05H0V242H167.342L45.917 121Z" fill="#9540D6"/>
<path d="M215.619 121L173.361 162.689C143.471 192.176 164.6 242 206.858 242H262V0H92.9677L215.619 121Z" fill="#9540D6"/>
<path d="M163.961 121C163.961 140.16 148.069 155.692 128.465 155.692C108.86 155.692 92.9677 140.16 92.9677 121C92.9677 101.84 108.86 86.3077 128.465 86.3077C148.069 86.3077 163.961 101.84 163.961 121Z" fill="#9540D6"/>
</svg>
